<svg width="35" height="31" viewBox="0 0 35 31" fill="none" xmlns="http://www.w3.org/2000/svg">
<path d="M34.4722 4.13136C33.2045 4.73594 31.8427 5.14444 30.411 5.32908C31.8883 4.37775 32.9934 2.88049 33.5203 1.11665C32.1324 2.00389 30.6135 2.62841 29.0295 2.96306C27.9643 1.73898 26.5534 0.927641 25.0159 0.655006C23.4783 0.382371 21.9002 0.663695 20.5264 1.4553C19.1527 2.2469 18.0602 3.5045 17.4185 5.03284C16.7769 6.56118 16.6221 8.27475 16.978 9.90751C14.1658 9.75555 11.4148 8.96887 8.90336 7.59853C6.39195 6.2282 4.17632 4.30483 2.40027 1.95325C1.79299 3.08071 1.44381 4.3879 1.44381 5.78006C1.44313 7.03332 1.72989 8.26739 2.27863 9.37276C2.82738 10.4781 3.62115 11.4207 4.58952 12.1167C3.46647 12.0782 2.3682 11.7516 1.38612 11.1641V11.2621C1.386 13.0198 1.95094 14.7235 2.98506 16.084C4.01918 17.4445 5.45879 18.378 7.05962 18.7262C6.01781 19.0296 4.92555 19.0743 3.86533 18.8569C4.31699 20.3693 5.19679 21.6919 6.38155 22.6394C7.56631 23.587 8.99672 24.1121 10.4725 24.1412C7.96725 26.2579 4.87325 27.4061 1.68824 27.401C1.12405 27.4012 0.560331 27.3657 0 27.2948C3.23297 29.532 6.99638 30.7193 10.8399 30.7147C23.8509 30.7147 30.9637 19.1167 30.9637 9.05784C30.9637 8.73104 30.9561 8.40098 30.9424 8.07418C32.3259 6.99734 33.5202 5.66387 34.4692 4.13626L34.4722 4.13136Z" fill="#1E344F"/>
</svg>
