<svg width="743" height="722" viewBox="0 0 743 722" fill="none" xmlns="http://www.w3.org/2000/svg">
<g opacity="0.5">
<g opacity="0.89">
<path opacity="0.89" d="M371.5 721C576.122 721 742 559.823 742 361C742 162.177 576.122 1 371.5 1C166.878 1 1 162.177 1 361C1 559.823 166.878 721 371.5 721Z" stroke="#D1CDDE" stroke-width="0.8127" stroke-linecap="round" stroke-linejoin="round"/>
</g>
<g opacity="0.89">
<path opacity="0.89" d="M371.501 694.746C561.2 694.746 714.981 545.323 714.981 361C714.981 176.678 561.2 27.2549 371.501 27.2549C181.803 27.2549 28.0215 176.678 28.0215 361C28.0215 545.323 181.803 694.746 371.501 694.746Z" stroke="#D1CDDE" stroke-width="0.9493" stroke-linecap="round" stroke-linejoin="round"/>
</g>
<g opacity="0.89">
<path opacity="0.89" d="M371.5 668.491C546.276 668.491 687.96 530.823 687.96 361C687.96 191.178 546.276 53.5095 371.5 53.5095C196.725 53.5095 55.041 191.178 55.041 361C55.041 530.823 196.725 668.491 371.5 668.491Z" stroke="#D1CDDE" stroke-width="1.0859" stroke-linecap="round" stroke-linejoin="round"/>
</g>
<g opacity="0.89">
<path opacity="0.89" d="M371.499 642.236C531.352 642.236 660.938 516.322 660.938 361C660.938 205.677 531.352 79.7636 371.499 79.7636C211.647 79.7636 82.0605 205.677 82.0605 361C82.0605 516.322 211.647 642.236 371.499 642.236Z" stroke="#D1CDDE" stroke-width="1.2225" stroke-linecap="round" stroke-linejoin="round"/>
</g>
<g opacity="0.89">
<path opacity="0.89" d="M371.501 615.982C516.43 615.982 633.919 501.822 633.919 361C633.919 220.177 516.43 106.018 371.501 106.018C226.571 106.018 109.082 220.177 109.082 361C109.082 501.822 226.571 615.982 371.501 615.982Z" stroke="#D1CDDE" stroke-width="1.3591" stroke-linecap="round" stroke-linejoin="round"/>
</g>
<g opacity="0.89">
<path opacity="0.89" d="M371.502 589.727C501.508 589.727 606.9 487.322 606.9 361C606.9 234.678 501.508 132.273 371.502 132.273C241.495 132.273 136.104 234.678 136.104 361C136.104 487.322 241.495 589.727 371.502 589.727Z" stroke="#D1CDDE" stroke-width="1.4956" stroke-linecap="round" stroke-linejoin="round"/>
</g>
<g opacity="0.89">
<path opacity="0.89" d="M371.499 563.473C486.583 563.473 579.876 472.823 579.876 361C579.876 249.178 486.583 158.528 371.499 158.528C256.415 158.528 163.121 249.178 163.121 361C163.121 472.823 256.415 563.473 371.499 563.473Z" stroke="#D1CDDE" stroke-width="1.6322" stroke-linecap="round" stroke-linejoin="round"/>
</g>
<g opacity="0.89">
<path opacity="0.89" d="M371.5 537.218C471.661 537.218 552.857 458.323 552.857 361C552.857 263.678 471.661 184.783 371.5 184.783C271.339 184.783 190.143 263.678 190.143 361C190.143 458.323 271.339 537.218 371.5 537.218Z" stroke="#D1CDDE" stroke-width="1.7688" stroke-linecap="round" stroke-linejoin="round"/>
</g>
<g opacity="0.89">
<path opacity="0.89" d="M371.5 511.007C456.763 511.007 525.883 443.847 525.883 361C525.883 278.153 456.763 210.993 371.5 210.993C286.237 210.993 217.117 278.153 217.117 361C217.117 443.847 286.237 511.007 371.5 511.007Z" stroke="#D1CDDE" stroke-width="1.9054" stroke-linecap="round" stroke-linejoin="round"/>
</g>
<g opacity="0.89">
<path opacity="0.89" d="M371.501 484.753C441.841 484.753 498.863 429.347 498.863 361C498.863 292.653 441.841 237.247 371.501 237.247C301.161 237.247 244.139 292.653 244.139 361C244.139 429.347 301.161 484.753 371.501 484.753Z" stroke="#D1CDDE" stroke-width="2.042" stroke-linecap="round" stroke-linejoin="round"/>
</g>
<g opacity="0.89">
<path opacity="0.89" d="M371.5 458.498C426.917 458.498 471.842 414.847 471.842 361C471.842 307.153 426.917 263.502 371.5 263.502C316.083 263.502 271.158 307.153 271.158 361C271.158 414.847 316.083 458.498 371.5 458.498Z" stroke="#D1CDDE" stroke-width="2.1786" stroke-linecap="round" stroke-linejoin="round"/>
</g>
<g opacity="0.89">
<path opacity="0.89" d="M371.501 432.244C411.996 432.244 444.823 400.347 444.823 361C444.823 321.654 411.996 289.757 371.501 289.757C331.007 289.757 298.18 321.654 298.18 361C298.18 400.347 331.007 432.244 371.501 432.244Z" stroke="#D1CDDE" stroke-width="2.3152" stroke-linecap="round" stroke-linejoin="round"/>
</g>
</g>
</svg>
