<svg width="113" height="21" viewBox="0 0 113 21" fill="none" xmlns="http://www.w3.org/2000/svg">
<path fill-rule="evenodd" clip-rule="evenodd" d="M52.8854 2.66089C49.9463 3.36471 47.048 4.18581 44.1173 5.02109C36.0167 7.32984 17.4107 12.8933 6.88706 16.0401C4.90935 16.6314 3.21709 17.1374 1.93365 17.5205C1.20509 17.7379 0.383198 17.464 0.0979104 16.9088C-0.187377 16.3535 0.171968 15.7271 0.900531 15.5097C2.179 15.1282 3.86664 14.6235 5.8403 14.0334C16.3583 10.8883 34.9995 5.31426 43.1249 2.99848C46.1409 2.13887 49.2021 1.27113 52.3251 0.531965C52.4965 0.491404 52.6705 0.443695 52.8815 0.385877C52.9201 0.3753 52.9599 0.364384 53.0012 0.353111C53.2515 0.284756 53.5475 0.205509 53.8559 0.141264C54.4608 0.0152614 55.2803 -0.090856 56.1437 0.11991C56.91 0.306981 57.0877 0.830016 57.1186 1.01235C57.1497 1.19605 57.1098 1.34038 57.0985 1.38089C57.0694 1.48504 57.0253 1.56583 57.0128 1.58887L57.0123 1.58966C56.9774 1.65376 56.9368 1.71399 56.9105 1.75204C56.8511 1.83821 56.769 1.94824 56.6762 2.06937C56.487 2.31638 56.2133 2.66117 55.8859 3.06772C55.2292 3.8831 54.3365 4.97113 53.4233 6.0761C51.6049 8.27635 49.6726 10.5831 49.3565 10.9391C49.0871 11.2424 48.6778 11.65 48.2383 12.0874C48.1412 12.1841 48.0427 12.2821 47.9439 12.3809C47.3775 12.9468 46.7586 13.5762 46.1977 14.2138C45.632 14.8568 45.1565 15.4737 44.8568 16.0125C44.6863 16.3188 44.6009 16.5508 44.5636 16.7183C44.7238 16.7278 44.9373 16.7303 45.2116 16.7188C46.2321 16.6761 47.6319 16.4632 49.1277 16.1706C51.4937 15.7077 53.7848 15.1142 54.8995 14.8255C55.2035 14.7467 55.42 14.6907 55.5267 14.6661C65.4457 12.3794 75.3884 10.1498 85.7457 8.8536C86.1534 8.80258 86.7186 8.71473 87.3958 8.60946C89.5718 8.27124 92.9043 7.75326 95.8834 7.69959C97.847 7.66421 99.9112 7.81665 101.539 8.46121C102.377 8.79293 103.122 9.26406 103.655 9.91542C104.189 10.5677 104.46 11.3384 104.476 12.2077C104.481 12.4741 104.415 12.7925 104.348 13.0699C104.275 13.3701 104.175 13.7214 104.069 14.0885C104.046 14.166 104.023 14.2445 104 14.3238C103.8 15.0114 103.58 15.7646 103.419 16.4966C103.235 17.3306 103.151 18.0368 103.216 18.523C103.233 18.6511 103.255 18.7373 103.275 18.7933C104.223 18.9109 105.453 18.8024 106.888 18.5683C107.575 18.4561 108.264 18.3235 108.956 18.1904L109.14 18.1551C109.879 18.0131 110.63 17.8707 111.322 17.7718C112.091 17.6619 112.831 18.0479 112.975 18.634C113.12 19.2201 112.613 19.7843 111.844 19.8942C111.251 19.9789 110.582 20.1049 109.832 20.249C109.77 20.261 109.707 20.2732 109.643 20.2854C108.96 20.4169 108.222 20.559 107.481 20.6798C105.901 20.9376 104.085 21.1409 102.478 20.8755C100.882 20.612 100.491 19.4415 100.397 18.7413C100.292 17.9514 100.434 17.0059 100.625 16.1389C100.799 15.3476 101.035 14.5379 101.234 13.857C101.257 13.7767 101.28 13.6983 101.302 13.6219C101.409 13.2521 101.499 12.9358 101.562 12.6782C101.593 12.5501 101.614 12.4462 101.628 12.3643C101.635 12.3238 101.639 12.2925 101.641 12.2692C101.643 12.2452 101.643 12.2357 101.643 12.2376C101.633 11.699 101.471 11.3267 101.251 11.0587C101.031 10.7898 100.702 10.5632 100.233 10.3775C99.2472 9.98715 97.7656 9.8257 95.9503 9.8584C93.2576 9.90691 90.388 10.3521 88.2178 10.6888C87.4449 10.8088 86.7607 10.9149 86.2048 10.9845C76.0534 12.255 66.2744 14.4444 56.347 16.733C56.3473 16.7329 56.3459 16.7332 56.3426 16.734L56.329 16.7373L56.2827 16.7489C56.2439 16.7587 56.1943 16.7714 56.1328 16.7873C56.0677 16.8041 55.9951 16.823 55.9128 16.8443C55.8358 16.8643 55.7504 16.8865 55.6547 16.9113C55.266 17.0119 54.7481 17.1449 54.1451 17.2942C52.9421 17.5921 51.3886 17.9577 49.8321 18.2622C48.2958 18.5628 46.6757 18.8202 45.367 18.875C44.7261 18.9018 44.0363 18.8867 43.4346 18.7484C42.8198 18.607 42.0171 18.2578 41.7895 17.5C41.5485 16.6976 41.8675 15.8537 42.2482 15.1695C42.6495 14.4481 43.2373 13.7013 43.8442 13.0113C44.4559 12.316 45.1189 11.643 45.6909 11.0714C45.8036 10.9587 45.9114 10.8514 46.014 10.7492C46.4503 10.3146 46.7916 9.97467 47.0099 9.72887C47.2932 9.40973 49.195 7.14059 51.0258 4.92524C51.686 4.12641 52.3327 3.33971 52.8854 2.66089ZM103.322 18.884C103.321 18.8857 103.313 18.8783 103.301 18.8563C103.317 18.8712 103.323 18.8822 103.322 18.884Z" fill="black"/>
</svg>
