<svg width="31" height="31" viewBox="0 0 31 31" fill="none" xmlns="http://www.w3.org/2000/svg">
<path d="M10.3333 14.7249C10.3333 15.7195 11.1083 16.5333 12.0512 16.5333H13.9887C14.8154 16.5333 15.4871 15.8228 15.4871 14.9574C15.4871 14.0145 15.0737 13.6787 14.4667 13.4591L11.3667 12.3741C10.7467 12.1545 10.3333 11.8187 10.3333 10.8758C10.3333 10.0103 11.005 9.29993 11.8317 9.29993H13.7692C14.725 9.31284 15.5 10.1137 15.5 11.1083" stroke="#1E344F" stroke-width="2" stroke-linecap="round" stroke-linejoin="round"/>
<path d="M12.9167 16.5979V17.5537" stroke="#1E344F" stroke-width="2" stroke-linecap="round" stroke-linejoin="round"/>
<path d="M12.9167 8.27966V9.28716" stroke="#1E344F" stroke-width="2" stroke-linecap="round" stroke-linejoin="round"/>
<path d="M12.9038 23.2242C18.6036 23.2242 23.2242 18.6036 23.2242 12.9038C23.2242 7.20398 18.6036 2.58337 12.9038 2.58337C7.20394 2.58337 2.58333 7.20398 2.58333 12.9038C2.58333 18.6036 7.20394 23.2242 12.9038 23.2242Z" stroke="#1E344F" stroke-width="2" stroke-linecap="round" stroke-linejoin="round"/>
<path d="M16.7658 25.6783C17.9283 27.3187 19.8271 28.3908 21.9971 28.3908C25.5233 28.3908 28.3908 25.5233 28.3908 21.997C28.3908 19.8529 27.3316 17.9541 25.7171 16.7916" stroke="#1E344F" stroke-width="2" stroke-linecap="round" stroke-linejoin="round"/>
</svg>
